# xmcd CD database file
#
# Track frame offsets:
#	150
#	32634
#	56028
#	85884
#	107443
#	132479
#	157765
#	181325
#	210499
#	234052
#	261379
#	280667
#	305793
#	345302
#
# Disc length: 4650 seconds
#
# Revision: 1
# Processed by: cddbd v1.5.1PL0 Copyright (c) Steve Scherf et al.
# Submitted via: CDex 1.51
#
DISCID=b712280e
DTITLE=Various Artist - The Best of Èistá Stage
DYEAR=2005
DGENRE=Breakbeat
TTITLE0=Dobbs - The Alchemist (Christian J rmx)
TTITLE1=Silken - Gunshy (Disposable Djs rmx)
TTITLE2=Alex Dolby - Hazy Way (Evil 9 rmx)
TTITLE3=T-mofi - Thought Process (Hyper rmx)
TTITLE4=Dopamine - Zoit
TTITLE5=Tayo meets Acid Rockers uptown - Rockers Delight
TTITLE6=Plump Djs - The Gate
TTITLE7=Move-Ya! and Steve Lavers - Monkey Scratch
TTITLE8=Trisco - All About You
TTITLE9=Redanka - In-A-State (fUcKed dub rmx)
TTITLE10=McMillan and Tab - Above the Clouds (Evil 9 rmx)
TTITLE11=Uptown Connection - System Senegal (Koma+Bones rmx)
TTITLE12=Christian J and Dylan Rhymes - Party People
TTITLE13=data - data
EXTD=YEAR: 2005
EXTT0=
EXTT1=
EXTT2=
EXTT3=
EXTT4=
EXTT5=
EXTT6=
EXTT7=
EXTT8=
EXTT9=
EXTT10=
EXTT11=
EXTT12=
EXTT13=
PLAYORDER=
